<svg xmlns="http://www.w3.org/2000/svg" xmlns:xlink="http://www.w3.org/1999/xlink" id="Layer_1" x="0" y="0" version="1.1" viewBox="0 0 177.2 81.5" style="enable-background:new 0 0 177.2 81.5" xml:space="preserve"><style type="text/css">.st0{fill:none}.st0,.st1{stroke:#000;stroke-miterlimit:10}</style><line x1="3.5" x2="173.6" y1="78" y2="78" class="st0"/><polyline points="145.3 46.1 145.3 24.8 116.9 24.8" class="st0"/><line x1="134.6" x2="155.9" y1="46.1" y2="46.1" class="st0"/><line x1="134.6" x2="155.9" y1="53.1" y2="53.1" class="st0"/><line x1="145.3" x2="145.3" y1="78" y2="53.1" class="st0"/><g><line x1="95.7" x2="95.7" y1="3.5" y2="17.7" class="st0"/><polygon points="85 3.5 95.7 10.6 85 17.7" class="st1"/></g><g><line x1="85" x2="85" y1="46.1" y2="31.9" class="st0"/><polygon points="95.7 46.1 85 39 95.7 31.9" class="st1"/></g><circle cx="145.3" cy="78" r="1.8" class="st1"/><g><polyline points="46.1 10.6 31.9 10.6 31.9 39" class="st0"/><line x1="85" x2="70.9" y1="10.6" y2="10.6" class="st0"/><rect width="24.8" height="10.6" x="46.1" y="5.3" class="st0"/></g><g><line x1="31.9" x2="46.1" y1="39" y2="39" class="st0"/><line x1="85" x2="70.9" y1="39" y2="39" class="st0"/><rect width="24.8" height="10.6" x="46.1" y="33.7" class="st0"/></g><circle cx="116.9" cy="24.8" r="1.8" class="st1"/><circle cx="145.3" cy="24.8" r="1.8" class="st1"/><circle cx="31.9" cy="24.8" r="1.8" class="st1"/><polyline points="95.7 10.6 116.9 10.6 116.9 39 95.7 39" class="st0"/><line x1="31.9" x2="3.5" y1="24.8" y2="24.8" class="st0"/><line x1="145.3" x2="173.6" y1="24.8" y2="24.8" class="st0"/></svg>