<svg xmlns="http://www.w3.org/2000/svg" xmlns:xlink="http://www.w3.org/1999/xlink" id="Layer_2" x="0" y="0" version="1.1" viewBox="0 0 423.59 342.91" style="enable-background:new 0 0 423.59 342.91" xml:space="preserve"><style type="text/css">.st0{fill:none;stroke:#00b2ff}.st0,.st1,.st2{stroke-miterlimit:10}.st1{fill:#fff;stroke:#b3b3b3;stroke-width:.5}.st2{fill:none;stroke:#737373;stroke-width:.75}.st3{fill:#505050}.st4{font-family:&apos;Roboto-Regular&apos;}.st5{font-size:12px}.st6,.st7,.st8{fill:none;stroke:#06f;stroke-miterlimit:10}.st7,.st8{stroke:#e900e6}.st8{stroke-dasharray:8.1016,8.1016}.st9{fill:#fff}.st10,.st11{fill:none;stroke:#b3b3b3;stroke-width:.5;stroke-miterlimit:10}.st11{stroke-dasharray:6.0512,6.0512}.st12{fill:#969696}.st13{font-size:9px}</style><path d="M162.6,215.67c0,0,67.39-50.19,145.04-62.05" class="st0"/><path d="M263.06,160.43" class="st0"/><path d="M189.28,195.8" class="st0"/><line x1="67.94" x2="67.98" y1="32.5" y2="298.46" class="st1"/><line x1="51.41" x2="408.57" y1="44.26" y2="44.26" class="st1"/><line x1="51.41" x2="408.57" y1="92.17" y2="92.17" class="st1"/><line x1="51.41" x2="408.57" y1="140.64" y2="140.64" class="st1"/><line x1="51.41" x2="408.57" y1="189.38" y2="189.38" class="st1"/><line x1="51.41" x2="408.57" y1="238.13" y2="238.13" class="st1"/><line x1="51.41" x2="408.57" y1="286.18" y2="286.18" class="st1"/><line x1="132.79" x2="132.84" y1="32.5" y2="298.46" class="st1"/><line x1="197.41" x2="197.45" y1="32.5" y2="298.46" class="st1"/><line x1="263.06" x2="263.1" y1="33.57" y2="298.55" class="st1"/><line x1="263.15" x2="263.2" y1="32.5" y2="298.46" class="st1"/><line x1="327.78" x2="327.82" y1="32.5" y2="298.46" class="st1"/><line x1="392.67" x2="392.72" y1="32.5" y2="298.46" class="st1"/><rect width="357.16" height="265.96" x="51.41" y="32.5" class="st2"/><text class="st3 st4 st5" transform="matrix(1 0 0 1 38.7939 48.1648)">0</text><text class="st3 st4 st5" transform="matrix(1 0 0 1 389.6146 313.6211)">0</text><text class="st3 st4 st5" transform="matrix(1 0 0 1 28.9541 96.0714)">-10</text><text class="st3 st4 st5" transform="matrix(1 0 0 1 319.8338 313.6212)">-10</text><text class="st3 st4 st5" transform="matrix(1 0 0 1 28.9543 144.5381)">-20</text><text class="st3 st4 st5" transform="matrix(1 0 0 1 255.2051 313.622)">-20</text><text class="st3 st4 st5" transform="matrix(1 0 0 1 28.9541 193.2852)">-30</text><text class="st3 st4 st5" transform="matrix(1 0 0 1 189.4624 313.6217)">-30</text><text class="st3 st4 st5" transform="matrix(1 0 0 1 28.954 242.032)">-40</text><text class="st3 st4 st5" transform="matrix(1 0 0 1 124.8441 313.6218)">-40</text><text class="st3 st4 st5" transform="matrix(1 0 0 1 28.954 290.0785)">-50</text><text class="st3 st4 st5" transform="matrix(1 0 0 1 59.9934 313.6215)">-50</text><text class="st3 st4 st5" transform="matrix(6.123234e-17 -1 1 6.123234e-17 16.2538 211.5244)">Output Level (dB)</text><text class="st3 st4 st5" transform="matrix(1 0 0 1 188.204 332.5796)">Input Level (dB)</text><text class="st4 st5" transform="matrix(1 0 0 1 145.7581 17.9299)">Compressor Transfer Response</text><polyline points="392.67 140.64 229.99 165.48 67.94 286.18" class="st6"/><g><g><line x1="67.94" x2="71.15" y1="286.18" y2="283.79" class="st7"/><line x1="77.64" x2="386.26" y1="278.95" y2="49.07" class="st8"/><line x1="389.51" x2="392.72" y1="46.65" y2="44.26" class="st7"/></g></g><g><line x1="230.37" x2="229.99" y1="298.55" y2="165.48" class="st9"/><g><line x1="230.37" x2="230.36" y1="298.55" y2="295.55" class="st10"/><line x1="230.34" x2="230.01" y1="289.5" y2="171.5" class="st11"/><line x1="230" x2="229.99" y1="168.48" y2="165.48" class="st10"/></g></g><text class="st12 st4 st13" transform="matrix(0.9113 -0.4118 0.4118 0.9113 217.331 194.8715)">soft knee</text><text class="st12 st4 st13" transform="matrix(0.7937 -0.6083 0.6083 0.7937 203.435 180.2151)">hard knee</text><g><text class="st12 st4 st13" transform="matrix(5.053215e-16 -1 1 5.053215e-16 239.9999 280.4634)">threshold</text></g></svg>