<svg xmlns="http://www.w3.org/2000/svg" xmlns:xlink="http://www.w3.org/1999/xlink" id="Layer_1" x="0" y="0" version="1.1" viewBox="0 0 262.2 70.9" style="enable-background:new 0 0 262.2 70.9" xml:space="preserve"><style type="text/css">.st0{fill:none;stroke:#000;stroke-miterlimit:10}.st1{font-family:&apos;Roboto-Light&apos;}.st2{font-size:10px}.st3{font-family:&apos;Roboto-Bold&apos;}.st4,.st5{fill:none;stroke:#77787b;stroke-miterlimit:10}.st5{stroke:#656668;stroke-width:.75}.st6{fill:#656668}</style><rect width="21.3" height="21.3" x="74.4" y="10.6" class="st0"/><text class="st1 st2" transform="matrix(1 0 0 1 77.219 24.5646)">d[0]</text><text class="st1 st2" transform="matrix(1 0 0 1 161.4152 60.2364)">d(3)</text><text class="st1 st2" transform="matrix(1 0 0 1 111.2788 60.2364)">d(1.3)</text><rect width="21.3" height="21.3" x="102.8" y="10.6" class="st0"/><text class="st1 st2" transform="matrix(1 0 0 1 105.5654 24.5646)">d[1]</text><rect width="21.3" height="21.3" x="131.1" y="10.6" class="st0"/><text class="st1 st2" transform="matrix(1 0 0 1 133.9119 24.5646)">d[2]</text><rect width="21.3" height="21.3" x="159.4" y="10.6" class="st0"/><text class="st1 st2" transform="matrix(1 0 0 1 162.2583 24.5646)">d[3]</text><rect width="21.3" height="21.3" x="187.8" y="10.6" class="st0"/><text class="st1 st2" transform="matrix(1 0 0 1 190.6048 24.5646)">d[4]</text><rect width="21.3" height="21.3" x="230.3" y="10.6" class="st0"/><text class="st1 st2" transform="matrix(1 0 0 1 232.3457 24.5646)">d[N]</text><text class="st3 st2" transform="matrix(1 0 0 1 215.3271 21.9596)">...</text><rect width="184.3" height="28.3" x="70.9" y="7.1" class="st4"/><text class="st1 st2" transform="matrix(1 0 0 1 7.6979 24.8029)">d.push(val)</text><g><g><line x1="56.7" x2="71.2" y1="21.3" y2="21.3" class="st5"/><g><polygon points="70.5 23.5 74.4 21.3 70.5 19" class="st6"/></g></g></g><g><g><line x1="170.1" x2="170.1" y1="31.9" y2="46.4" class="st5"/><g><polygon points="167.8 45.7 170.1 49.6 172.3 45.7" class="st6"/></g></g></g><g><g><line x1="141.7" x2="132.8" y1="31.9" y2="46.8" class="st5"/><g><polygon points="131.2 45.1 131.1 49.6 135 47.4" class="st6"/></g></g></g><g><g><line x1="113.4" x2="122.4" y1="31.9" y2="46.8" class="st5"/><g><polygon points="120.1 47.4 124 49.6 123.9 45.1" class="st6"/></g></g></g></svg>