<svg xmlns="http://www.w3.org/2000/svg" xmlns:xlink="http://www.w3.org/1999/xlink" id="Layer_1" x="0" y="0" version="1.1" viewBox="0 0 382.7 141.7" style="enable-background:new 0 0 382.7 141.7" xml:space="preserve"><style type="text/css">.st0,.st1{stroke-miterlimit:10}.st0{fill:none;stroke:#727272;stroke-width:.5}.st1{fill:#b8e5fa;stroke:#606060}.st2{fill:#010101}.st3{font-family:&apos;Roboto-Regular&apos;}.st4{font-size:12px}.st5{fill:#eecee3;stroke:#3951a2;stroke-miterlimit:10}.st6{fill:#595a5c}.st7{font-size:6px}.st8{fill:none;stroke:#606060;stroke-miterlimit:10}.st9{fill:#606060}.st10{fill:#98d2b1;stroke:#3951a2;stroke-miterlimit:10}</style><rect width="361.4" height="120.5" x="10.6" y="10.6" class="st0"/><g><path d="M278,81.5h-77.7c-4,0-7.2-2.1-7.2-4.6V54.2c0-2.6,3.2-4.6,7.2-4.6H278c4,0,7.2,2.1,7.2,4.6v22.6 C285.2,79.4,282,81.5,278,81.5z" class="st1"/><text class="st2 st3 st4" transform="matrix(1 0 0 1 206.4429 69.0612)">Compressor</text></g><path id="path5900_00000146472874770786270850000009725075015201688758_" d="M81.5,81.5c-8.7-0.7-13.5-3.2-17.9-10.7	c-5.3-0.6-10.7-1.8-15-4.9c-4.6-3-7.3-8.2-9.7-12.8C26.4,56,23.7,70.6,21.3,81.4" class="st5"/><text class="st6 st3 st7" transform="matrix(1 0 0 1 31.589 88.5761)">Input Envelope</text><g><path d="M171.7,81.5H94c-4,0-7.2-2.1-7.2-4.6V54.2c0-2.6,3.2-4.6,7.2-4.6h77.7c4,0,7.2,2.1,7.2,4.6v22.6 C178.9,79.4,175.7,81.5,171.7,81.5z" class="st1"/><text class="st2 st3 st4" transform="matrix(1 0 0 1 107.9578 69.0612)">Expander</text></g><g><g><line x1="178.9" x2="188.8" y1="65.6" y2="65.6" class="st8"/><g><polygon points="187.9 68.5 193.1 65.6 187.9 62.6" class="st9"/></g></g></g><g><g><line x1="285.2" x2="295.1" y1="65.6" y2="65.6" class="st8"/><g><polygon points="294.2 68.5 299.4 65.6 294.2 62.6" class="st9"/></g></g></g><g><g><line x1="72.6" x2="82.5" y1="65.6" y2="65.6" class="st8"/><g><polygon points="81.6 68.5 86.8 65.6 81.6 62.6" class="st9"/></g></g></g><path id="path5900_00000079481473514230676540000008172420579855004842_" d="M361.4,81.5c-8.7-0.7-13.3-7.7-17.7-15.1	c-5.3-0.6-9.1-0.3-15.7-3.6c-5.4-2.6-6.9-5.1-9.2-9.6c-12.5,2.9-15.2,17.6-17.6,28.3" class="st10"/><text class="st6 st3 st7" transform="matrix(1 0 0 1 304.1959 88.5561)">Processed Envelope</text></svg>