<svg xmlns="http://www.w3.org/2000/svg" xmlns:xlink="http://www.w3.org/1999/xlink" id="Layer_1" x="0" y="0" version="1.1" viewBox="0 0 407.5 159.4" style="enable-background:new 0 0 407.5 159.4" xml:space="preserve"><style type="text/css">.st0{fill:none;stroke:#000;stroke-miterlimit:10}.st1{font-family:&apos;Roboto-Regular&apos;}.st2{font-size:10px}.st3{font-size:7px}.st4{fill:#fff}</style><rect width="113.4" height="28.3" x="60.2" y="7.1" class="st0"/><text class="st1 st2" transform="matrix(1 0 0 1 85.6047 24.125)">max(s, peak1)</text><rect width="113.4" height="28.3" x="60.2" y="56.7" class="st0"/><rect width="152.3" height="28.3" x="209.1" y="56.7" class="st0"/><text class="st1 st2" transform="matrix(1 0 0 1 85.6047 73.731)">max(s, peak2)</text><text class="st1 st2" transform="matrix(1 0 0 1 221.3193 73.7147)">max(peak1, peak2, ... peakN)</text><rect width="113.4" height="28.3" x="60.2" y="106.3" class="st0"/><text class="st1 st2" transform="matrix(1 0 0 1 84.8478 123.3376)">max(s, peakN)</text><text class="st1 st2" transform="matrix(1 0 0 1 109.286 95.6693)">...</text><text class="st1 st2" transform="matrix(1 0 0 1 272.8345 134.5972)">...</text><g><g><line x1="7.1" x2="54.5" y1="70.9" y2="70.9" class="st0"/><g><polygon points="53.3 74.9 60.2 70.9 53.3 66.9"/></g></g></g><g><g><polyline points="54.5 21.3 39 21.3 39 120.5 54.5 120.5" class="st0"/><g><polygon points="53.3 17.3 60.2 21.3 53.3 25.2"/></g><g><polygon points="53.3 124.5 60.2 120.5 53.3 116.5"/></g></g></g><g><g><line x1="173.6" x2="203.3" y1="70.9" y2="70.9" class="st0"/><g><polygon points="202.1 74.9 209.1 70.9 202.1 66.9"/></g></g></g><g><g><line x1="361.5" x2="391.2" y1="71.3" y2="71.3" class="st0"/><g><polygon points="390 75.3 396.9 71.3 390 67.3"/></g></g></g><line x1="70.9" x2="70.9" y1="85" y2="95.7" class="st0"/><text class="st1 st3" transform="matrix(1 0 0 1 59.9297 102.756)">Reset2</text><line x1="70.9" x2="70.9" y1="134.6" y2="145.3" class="st0"/><text class="st1 st3" transform="matrix(1 0 0 1 59.5655 152.3623)">ResetN</text><line x1="69.2" x2="69.2" y1="35.4" y2="46.1" class="st0"/><text class="st1 st3" transform="matrix(1 0 0 1 58.8695 53.1497)">Reset1</text><g><g><polyline points="173.6 21.3 191.3 21.3 191.3 63.8 203.3 63.8" class="st0"/><g><polygon points="202.1 67.8 209.1 63.8 202.1 59.8"/></g></g></g><g><g><polyline points="173.6 120.5 191.3 120.5 191.3 78 203.3 78" class="st0"/><g><polygon points="202.1 81.9 209.1 78 202.1 74"/></g></g></g><g><rect width="28.3" height="14.2" x="258.7" y="95.7" class="st4"/><text class="st1 st3" transform="matrix(1 0 0 1 262.4897 105.2202)">Reset1</text></g><g><rect width="28.3" height="14.2" x="287" y="131.1" class="st4"/><text class="st1 st3" transform="matrix(1 0 0 1 290.8362 140.6533)">Reset2</text></g><g><rect width="28.3" height="14.2" x="233.9" y="131.1" class="st4"/><text class="st1 st3" transform="matrix(1 0 0 1 237.6866 140.6533)">ResetN</text></g><g><g><line x1="283.5" x2="297.5" y1="109.8" y2="126.7" class="st0"/><g><polygon points="293.7 128.3 301.2 131.1 299.8 123.2"/></g></g></g><g><g><line x1="248" x2="262.1" y1="131.1" y2="114.3" class="st0"/><g><polygon points="264.4 117.7 265.7 109.8 258.3 112.6"/></g></g></g><g><g><line x1="287" x2="267.9" y1="138.2" y2="138.2" class="st0"/><g><polygon points="269.1 134.2 262.2 138.2 269.1 142.2"/></g></g></g></svg>