<svg xmlns="http://www.w3.org/2000/svg" xmlns:xlink="http://www.w3.org/1999/xlink" id="Layer_2_00000170247000300003027530000002374476168042603398_" x="0" y="0" version="1.1" viewBox="0 0 369.2 293.6" style="enable-background:new 0 0 369.2 293.6" xml:space="preserve"><style type="text/css">.st0,.st1,.st2{stroke-miterlimit:10}.st0{fill:none;stroke:#00b2ff}.st1,.st2{stroke:#e900e6}.st1{fill:none}.st2{stroke-dasharray:8.1016,8.1016}.st2,.st3{fill:none}.st4,.st5{fill:none;stroke:#b3b3b3;stroke-width:.5;stroke-miterlimit:10}.st5{stroke-dasharray:6.0512,6.0512}.st6{fill:#4a4a4a}.st7{font-family:&apos;Roboto-Regular&apos;}.st8{font-size:8.9996px}.st9{font-size:9px}.st10{fill:none;stroke:#b3b3b3;stroke-miterlimit:10}.st11{fill:#b3b3b3}.st12{font-size:12px}.st13{fill:none;stroke:#06f;stroke-width:2;stroke-miterlimit:10}</style><path d="M222.9,134.4" class="st0"/><path d="M149.1,169.7" class="st0"/><g><g><line x1="27.8" x2="31" y1="260.1" y2="257.7" class="st1"/><line x1="37.5" x2="346.1" y1="252.9" y2="23" class="st2"/><line x1="349.4" x2="352.6" y1="20.6" y2="18.2" class="st1"/></g></g><g><line x1="190.2" x2="189.8" y1="257.7" y2="139.4" class="st3"/><g><line x1="190.2" x2="190.2" y1="257.7" y2="257.7" class="st4"/><line x1="191.3" x2="191.3" y1="258.2" y2="144.8" class="st5"/><line x1="78" x2="78" y1="258.2" y2="222.7" class="st5"/><line x1="191.3" x2="191.3" y1="141.2" y2="137.7" class="st4"/></g></g><g><line x1="283" x2="282.6" y1="252.7" y2="134.4" class="st3"/><g><line x1="283" x2="283" y1="252.7" y2="252.7" class="st4"/><line x1="283.5" x2="283.5" y1="258.2" y2="105.8" class="st5"/><path d="M283.5,105.8" class="st4"/><path d="M283.5,137.7" class="st4"/></g></g><g><text class="st6 st7 st8" transform="matrix(0.9448 -0.3275 0.3275 0.9448 219.7384 142.7498)">Compressor</text></g><g><text class="st6 st7 st8" transform="matrix(6.053037e-02 -0.9982 0.9982 6.053037e-02 90.5642 249.8103)">Gate</text></g><g><g><text class="st6 st7 st9" transform="matrix(1 0 0 1 305.8223 120.7579)">Limiter</text></g></g><g><g><line x1="27.8" x2="345.3" y1="260.1" y2="260.1" class="st10"/><g><polygon points="343.9 265.1 352.5 260.1 343.9 255.1" class="st11"/></g></g></g><g><g><line x1="27.8" x2="27.8" y1="260.1" y2="25.4" class="st10"/><g><polygon points="32.8 26.8 27.8 18.2 22.8 26.8" class="st11"/></g></g></g><g><text class="st6 st7 st12" transform="matrix(1 0 0 1 176.2408 279.3534)">Input</text></g><g><text class="st6 st7 st12" transform="matrix(6.123234e-17 -1 1 6.123234e-17 18.0992 157.3301)">Output</text></g><polyline points="72 260.1 77.6 223.1 191.3 137.7 283.5 105.8 352.6 106.3" class="st13"/></svg>