<svg xmlns="http://www.w3.org/2000/svg" xmlns:xlink="http://www.w3.org/1999/xlink" id="Layer_1" x="0" y="0" version="1.1" viewBox="0 0 255.1 92.1" style="enable-background:new 0 0 255.1 92.1" xml:space="preserve"><style type="text/css">.st0{fill:none;stroke:#000;stroke-miterlimit:10}.st1{font-family:&apos;Roboto-Light&apos;}.st2{font-size:10px}.st3{font-family:&apos;Roboto-Bold&apos;}.st4{stroke:#77787b;stroke-miterlimit:10}.st4,.st5{fill:none}.st6{font-size:7px}.st7{font-family:&apos;Roboto-Regular&apos;}.st8{font-size:36px}.st10,.st9{fill:none;stroke-miterlimit:10}.st9{stroke:#000;stroke-width:.5}.st10{stroke:#666769;stroke-width:.75}.st11{fill:#666769}</style><rect width="21.3" height="21.3" x="42.5" y="10.6" class="st0"/><text class="st1 st2" transform="matrix(1 0 0 1 45.5758 24.5646)">s[0]</text><text class="st1 st2" transform="matrix(1 0 0 1 7.9698 24.8032)">val</text><rect width="21.3" height="21.3" x="70.9" y="10.6" class="st0"/><text class="st1 st2" transform="matrix(1 0 0 1 73.9222 24.5646)">s[1]</text><rect width="21.3" height="21.3" x="99.2" y="10.6" class="st0"/><text class="st1 st2" transform="matrix(1 0 0 1 102.2687 24.5646)">s[2]</text><rect width="21.3" height="21.3" x="127.6" y="10.6" class="st0"/><text class="st1 st2" transform="matrix(1 0 0 1 130.6152 24.5646)">s[3]</text><rect width="21.3" height="21.3" x="155.9" y="10.6" class="st0"/><text class="st1 st2" transform="matrix(1 0 0 1 158.9616 24.5646)">s[4]</text><rect width="21.3" height="21.3" x="198.4" y="10.6" class="st0"/><text class="st1 st2" transform="matrix(1 0 0 1 200.7025 24.5646)">s[N]</text><text class="st3 st2" transform="matrix(1 0 0 1 183.4374 21.9596)">...</text><rect width="184.3" height="28.3" x="39" y="7.1" class="st4"/><g><path d="M138.2,31.9" class="st5"/></g><g><path d="M109.8,31.9" class="st5"/></g><g><path d="M81.5,31.9" class="st5"/></g><g><path d="M53.1,31.9" class="st5"/></g><g><path d="M166.5,31.9" class="st5"/></g><g><path d="M209.1,31.9" class="st5"/></g><g><text class="st1 st6" transform="matrix(1 0 0 1 115.3136 85.0395)">i=0</text><g><text class="st1 st2" transform="matrix(1 0 0 1 131.6413 68.4599)">s[i]</text></g><text class="st1 st6" transform="matrix(1 0 0 1 117.4894 49.6065)">N</text><text class="st7 st8" transform="matrix(1 0 0 1 109.7001 77.9528)">Σ</text><g><text class="st1 st6" transform="matrix(1 0 0 1 99.7375 71.5353)">N</text><text class="st1 st6" transform="matrix(1 0 0 1 100.7285 62.8665)">1</text><line x1="99.1" x2="105.3" y1="64.6" y2="64.6" class="st9"/></g></g><g><g><line x1="24.8" x2="39.3" y1="21.3" y2="21.3" class="st10"/><g><polygon points="38.6 23.5 42.5 21.3 38.6 19" class="st11"/></g></g></g><g><g><line x1="219.7" x2="234.2" y1="21.3" y2="21.3" class="st10"/><g><polygon points="233.5 23.5 237.4 21.3 233.5 19" class="st11"/></g></g></g></svg>