<svg xmlns="http://www.w3.org/2000/svg" xmlns:xlink="http://www.w3.org/1999/xlink" id="Layer_2_00000170247000300003027530000002374476168042603398_" x="0" y="0" version="1.1" viewBox="0 0 369.2 293.6" style="enable-background:new 0 0 369.2 293.6" xml:space="preserve"><style type="text/css">.st0{fill:none;stroke:#00b2ff}.st0,.st1,.st2,.st3{stroke-miterlimit:10}.st1{fill:none;stroke:#06f;stroke-width:2}.st2,.st3{stroke:#e900e6}.st2{fill:none}.st3{stroke-dasharray:8.1016,8.1016}.st3,.st4{fill:none}.st5,.st6{fill:none;stroke:#b3b3b3;stroke-width:.5;stroke-miterlimit:10}.st6{stroke-dasharray:6.0512,6.0512}.st7{fill:#4a4a4a}.st8{font-family:&apos;Roboto-Regular&apos;}.st9{font-size:12px}.st10{fill:none;stroke:#b3b3b3;stroke-miterlimit:10}.st11{fill:#b3b3b3}</style><path d="M222.9,134.4" class="st0"/><path d="M149.1,169.7" class="st0"/><path d="M352.5,114.6l-124.3,19c-25.2,3.9-49.1,13.8-69.6,29.1L27.8,260.1" class="st1"/><g><g><line x1="27.8" x2="31" y1="260.1" y2="257.7" class="st2"/><line x1="37.5" x2="346.1" y1="252.9" y2="23" class="st3"/><line x1="349.4" x2="352.6" y1="20.6" y2="18.2" class="st2"/></g></g><g><line x1="190.2" x2="189.8" y1="228.8" y2="139.4" class="st4"/><g><line x1="190.2" x2="190.2" y1="228.8" y2="228.8" class="st5"/><line x1="190.2" x2="189.9" y1="222.7" y2="143.5" class="st6"/><line x1="189.8" x2="189.8" y1="141.4" y2="139.4" class="st5"/></g></g><g><line x1="149.3" x2="148.9" y1="257.7" y2="169.7" class="st4"/><g><line x1="149.3" x2="149.3" y1="257.7" y2="257.7" class="st5"/><line x1="149.3" x2="149" y1="260.1" y2="173.7" class="st6"/><line x1="148.9" x2="148.9" y1="171.7" y2="169.7" class="st5"/></g></g><g><line x1="231.1" x2="230.7" y1="257.7" y2="133.2" class="st4"/><g><line x1="231.1" x2="231.1" y1="257.7" y2="257.7" class="st5"/><line x1="231.1" x2="230.8" y1="260.1" y2="138.8" class="st6"/><line x1="230.7" x2="230.7" y1="136" y2="133.2" class="st5"/></g></g><g><text class="st7 st8 st9" transform="matrix(1 0 0 1 163.4477 233.1073)">Threshold</text></g><g><text class="st7 st8 st9" transform="matrix(1 0 0 1 174.7184 253.8387)">Width</text></g><g><text class="st7 st8 st9" transform="matrix(0.9869 -0.1616 0.1616 0.9869 265.9402 139.5003)">Ratio</text></g><g><g><line x1="27.8" x2="345.3" y1="260.1" y2="260.1" class="st10"/><g><polygon points="343.9 265.1 352.5 260.1 343.9 255.1" class="st11"/></g></g></g><g><g><line x1="27.8" x2="27.8" y1="260.1" y2="25.4" class="st10"/><g><polygon points="32.8 26.8 27.8 18.2 22.8 26.8" class="st11"/></g></g></g><g><text class="st7 st8 st9" transform="matrix(1 0 0 1 176.2408 279.3534)">Input</text></g><g><text class="st7 st8 st9" transform="matrix(6.123234e-17 -1 1 6.123234e-17 18.0992 157.33)">Output</text></g><path d="M149.3,249.3" class="st7"/><g><line x1="149.3" x2="170.6" y1="249.3" y2="249.3" class="st7"/><g><line x1="152.9" x2="170.6" y1="249.3" y2="249.3" class="st5"/><g><polygon points="153.6 251.8 149.3 249.3 153.6 246.8" class="st11"/></g></g></g><g><line x1="210.1" x2="230.9" y1="249.3" y2="249.3" class="st7"/><g><line x1="210.1" x2="227.3" y1="249.3" y2="249.3" class="st5"/><g><polygon points="226.6 251.8 230.9 249.3 226.6 246.8" class="st11"/></g></g></g></svg>